
                <!-- SVG Menu Generated By CIRCULUS.SVG :: https://sarasoueidan.com/tools/circulus -->
                <svg xmlns="http://www.w3.org/2000/svg" xmlns:xlink="http://www.w3.org/1999/xlink" viewBox="-2 -2 504 504" id="menu" style="transform-origin: 50% 50% 0px; transform: matrix3d(-0.175912, 0.984406, 0, 0, -0.984406, -0.175912, 0, 0, 0, 0, 1, 0, 0, 0, 0, 1); touch-action: none; user-select: none;">
                    <style>
                        #menu {
                            display: block;
                            margin: 0 auto;
                            /*overflow: visible;*/ /* uncomment this if you are using bouncing animations*/
                        }

                        a {
                            cursor: pointer; /* SVG &lt;a&gt; elements don't get this by default, so you need to explicitly set it */
                            outline: none;
                        }

                        /* You can change these default styles any way you want */

                        .item .sector {
                            transition: all .1s linear;
                            fill: #fff;
                            stroke: #111;
                        }


                        .item:hover .sector, .item:focus .sector {
                            fill: #eee;
                        }

                        .menu-trigger {
                            fill: #EA2A55;
                            pointer-events: auto; /* KEEP THIS to make sure it stays clickable even when SVG's pointer events is disabled */
                        }

                        .menu-trigger:hover, .menu-trigger:focus {
                            cursor: pointer;
                        }
                        symbol {
                            overflow: visible; /* KEEP THIS so that text will not get cut off it it is wider than the icon width */
                        }
                    </style>
                    <g id="symbolsContainer">	<symbol class="icon icon-" id="icon-1" viewBox="0 0 40 40"><!--Replace the contents of this symbol with the content of your icon--><rect fill="none" stroke="#111" stroke-width="1" width="100%" height="100%"></rect><text fill="#222" x="50%" y="50%" dy=".3em" text-anchor="middle" font-size="1.2em">1</text></symbol>

	<symbol class="icon icon-" id="icon-2" viewBox="0 0 40 40"><!--Replace the contents of this symbol with the content of your icon--><rect fill="none" stroke="#111" stroke-width="1" width="100%" height="100%"></rect><text fill="#222" x="50%" y="50%" dy=".3em" text-anchor="middle" font-size="1.2em">2</text></symbol>

	<symbol class="icon icon-" id="icon-3" viewBox="0 0 40 40"><!--Replace the contents of this symbol with the content of your icon--><rect fill="none" stroke="#111" stroke-width="1" width="100%" height="100%"></rect><text fill="#222" x="50%" y="50%" dy=".3em" text-anchor="middle" font-size="1.2em">3</text></symbol>

	<symbol class="icon icon-" id="icon-4" viewBox="0 0 40 40"><!--Replace the contents of this symbol with the content of your icon--><rect fill="none" stroke="#111" stroke-width="1" width="100%" height="100%"></rect><text fill="#222" x="50%" y="50%" dy=".3em" text-anchor="middle" font-size="1.2em">4</text></symbol>

	<symbol class="icon icon-" id="icon-5" viewBox="0 0 40 40"><!--Replace the contents of this symbol with the content of your icon--><rect fill="none" stroke="#111" stroke-width="1" width="100%" height="100%"></rect><text fill="#222" x="50%" y="50%" dy=".3em" text-anchor="middle" font-size="1.2em">5</text></symbol>

	<symbol class="icon icon-" id="icon-6" viewBox="0 0 40 40"><!--Replace the contents of this symbol with the content of your icon--><rect fill="none" stroke="#111" stroke-width="1" width="100%" height="100%"></rect><text fill="#222" x="50%" y="50%" dy=".3em" text-anchor="middle" font-size="1.2em">6</text></symbol>

	<symbol class="icon icon-" id="icon-7" viewBox="0 0 40 40"><!--Replace the contents of this symbol with the content of your icon--><rect fill="none" stroke="#111" stroke-width="1" width="100%" height="100%"></rect><text fill="#222" x="50%" y="50%" dy=".3em" text-anchor="middle" font-size="1.2em">7</text></symbol>

	<symbol class="icon icon-" id="icon-8" viewBox="0 0 40 40"><!--Replace the contents of this symbol with the content of your icon--><rect fill="none" stroke="#111" stroke-width="1" width="100%" height="100%"></rect><text fill="#222" x="50%" y="50%" dy=".3em" text-anchor="middle" font-size="1.2em">8</text></symbol>

</g>
                    <g id="itemsContainer">		<a class="item" id="item-1" role="link" tabindex="0" xlink:href=" " xlink:title=" " transform="matrix(1,0,0,1,0,0)" data-svg-origin="250 250"><path fill="none" stroke="#111" d="M340,250 l160,0 A250,250 0 0,0 480.9698831278217,154.32914190872754 l-147.82072520180589,61.229349178414395 A90,90 0 0,1 340,250" class="sector"></path><use xlink:href="#icon-1" width="40" height="40" x="371.23309326171875" y="201.90699768066406" transform="rotate(78.75 391.23309326171875 221.90699768066406)"></use></a>
		<a class="item" id="item-2" role="link" tabindex="0" xlink:href=" " xlink:title=" " transform="matrix(0.92387,-0.38268,0.38268,0.92387,-119.58178996330516,90.16503520198611)" data-svg-origin="250 250"><path fill="none" stroke="#111" d="M340,250 l160,0 A250,250 0 0,0 480.9698831278217,154.32914190872754 l-147.82072520180589,61.229349178414395 A90,90 0 0,1 340,250" class="sector"></path><use xlink:href="#icon-2" width="40" height="40" x="371.23309326171875" y="201.90699768066406" transform="rotate(78.75 391.23309326171875 221.90699768066406)"></use></a>
		<a class="item" id="item-3" role="link" tabindex="0" xlink:href=" " xlink:title=" " transform="matrix(0.70711,-0.7071,0.7071,0.70711,-195.5563770036315,219.2254264924621)" data-svg-origin="250 250"><path fill="none" stroke="#111" d="M340,250 l160,0 A250,250 0 0,0 480.9698831278217,154.32914190872754 l-147.82072520180589,61.229349178414395 A90,90 0 0,1 340,250" class="sector"></path><use xlink:href="#icon-3" width="40" height="40" x="371.23309326171875" y="201.90699768066406" transform="rotate(78.75 391.23309326171875 221.90699768066406)"></use></a>
		<a class="item" id="item-4" role="link" tabindex="0" xlink:href=" " xlink:title=" " transform="matrix(0.38268,-0.92387,0.92387,0.38268,-216.35918618522896,367.5375814142248)" data-svg-origin="250 250"><path fill="none" stroke="#111" d="M340,250 l160,0 A250,250 0 0,0 480.9698831278217,154.32914190872754 l-147.82072520180589,61.229349178414395 A90,90 0 0,1 340,250" class="sector"></path><use xlink:href="#icon-4" width="40" height="40" x="371.23309326171875" y="201.90699768066406" transform="rotate(78.75 391.23309326171875 221.90699768066406)"></use></a>
		<a class="item" id="item-5" role="link" tabindex="0" xlink:href=" " xlink:title=" " transform="matrix(0,-1,1,0,-178.82002258300784,512.5216827392578)" data-svg-origin="250 250"><path fill="none" stroke="#111" d="M340,250 l160,0 A250,250 0 0,0 480.9698831278217,154.32914190872754 l-147.82072520180589,61.229349178414395 A90,90 0 0,1 340,250" class="sector"></path><use xlink:href="#icon-5" width="40" height="40" x="371.23309326171875" y="201.90699768066406" transform="rotate(78.75 391.23309326171875 221.90699768066406)"></use></a>
		<a class="item" id="item-6" role="link" tabindex="0" xlink:href=" " xlink:title=" " transform="matrix(-0.38268,-0.92387,0.92387,-0.38268,-88.6549873810217,632.103772702563)" data-svg-origin="250 250"><path fill="none" stroke="#111" d="M340,250 l160,0 A250,250 0 0,0 480.9698831278217,154.32914190872754 l-147.82072520180589,61.229349178414395 A90,90 0 0,1 340,250" class="sector"></path><use xlink:href="#icon-6" width="40" height="40" x="371.23309326171875" y="201.90699768066406" transform="rotate(78.75 391.23309326171875 221.90699768066406)"></use></a>
		<a class="item" id="item-7" role="link" tabindex="0" xlink:href=" " xlink:title=" " transform="matrix(-0.7071,-0.70711,0.70711,-0.7071,40.40540390945429,708.0780597428893)" data-svg-origin="250 250"><path fill="none" stroke="#111" d="M340,250 l160,0 A250,250 0 0,0 480.9698831278217,154.32914190872754 l-147.82072520180589,61.229349178414395 A90,90 0 0,1 340,250" class="sector"></path><use xlink:href="#icon-7" width="40" height="40" x="371.23309326171875" y="201.90699768066406" transform="rotate(78.75 391.23309326171875 221.90699768066406)"></use></a>
		<a class="item" id="item-8" role="link" tabindex="0" xlink:href=" " xlink:title=" " transform="matrix(-0.92387,-0.38268,0.38268,-0.92387,188.71755883121693,728.8811689244868)" data-svg-origin="250 250"><path fill="none" stroke="#111" d="M340,250 l160,0 A250,250 0 0,0 480.9698831278217,154.32914190872754 l-147.82072520180589,61.229349178414395 A90,90 0 0,1 340,250" class="sector"></path><use xlink:href="#icon-8" width="40" height="40" x="371.23309326171875" y="201.90699768066406" transform="rotate(78.75 391.23309326171875 221.90699768066406)"></use></a>
</g>
                    <g id="trigger" class="trigger menu-trigger" role="button">
                        <circle cx="250" cy="250" r="30"></circle>
                        <!-- menu button label or icon goes here -->
                    </g>
                </svg>
            